<svg id="Group_168" data-name="Group 168" xmlns="http://www.w3.org/2000/svg" xmlns:xlink="http://www.w3.org/1999/xlink" width="92.072" height="92.109" viewBox="0 0 92.072 92.109">
  <defs>
    <clipPath id="clip-path">
      <rect id="Rectangle_126" data-name="Rectangle 126" width="92.072" height="92.109" fill="none"/>
    </clipPath>
  </defs>
  <g id="Group_167" data-name="Group 167" clip-path="url(#clip-path)">
    <path id="Path_118" data-name="Path 118" d="M56.278,50.992q.035-21.193,0-42.387A5.107,5.107,0,0,0,50.9,3.343q-21.075-.012-42.153,0A5.136,5.136,0,0,0,3.324,8.769q-.012,20.972,0,41.943c0,3.463,2.131,5.6,5.6,5.608q16.2.016,32.41,0c.329,0,.658-.013.984.009a1.645,1.645,0,1,1-.018,3.288c-1.86.034-3.722.01-5.583.014-.254,0-.508.023-.941.045,0,1.984.009,3.875,0,5.765-.008,1.353-.633,2.1-1.692,2.071-1.018-.03-1.6-.771-1.613-2.056-.009-1.825-.009-3.65-.017-5.475a2.051,2.051,0,0,0-.1-.352H31.124q-11.113,0-22.226,0c-5.278,0-8.874-3.557-8.883-8.855Q-.016,29.8.016,8.833C.022,3.632,3.526.044,8.709.03q21.076-.06,42.153,0C56.1.045,59.6,3.674,59.6,8.913c.006,13.944.034,27.889-.045,41.832" transform="translate(0 0)" fill="#00245d"/>
    <path id="Path_119" data-name="Path 119" d="M62.659,60.346Q51.094,48.759,39.514,37.187c-1.285-1.285-2.142-1.471-2.979-.655s-.665,1.711.6,2.979Q55.679,58.057,74.22,76.6c.317.318.622.648,1.144,1.193H73.106c-3.978,0-7.957-.009-11.935.008-1.15,0-1.792.61-1.806,1.6A1.627,1.627,0,0,0,61,81.1c.145.012.292.007.438.007q9.416,0,18.832,0c.243,0,.486-.045.8-.076V79.779q0-8.158,0-16.317c0-.84.034-1.681-.022-2.518a1.584,1.584,0,0,0-1.65-1.551,1.564,1.564,0,0,0-1.624,1.565c-.028.326-.016.657-.016.986q0,6.023,0,12.046v1.2a1.953,1.953,0,0,1-.393-.17c-3.619-3.607-7.243-7.21-10.832-10.846" transform="translate(-7.888 -7.893)" fill="#008df9"/>
    <path id="Path_120" data-name="Path 120" d="M116.249,49.679c.038,1.715-.493,2.412-1.508,2.469s-1.694-.583-1.773-1.773a5.475,5.475,0,0,0-1.7-3.678,1.674,1.674,0,0,1-.262-2.5c.714-.768,1.678-.726,2.6.149a8.054,8.054,0,0,1,2.645,5.337" transform="translate(-24.213 -9.56)" fill="#00245d"/>
    <path id="Path_121" data-name="Path 121" d="M43.408,105a1.542,1.542,0,0,1,1.447,1.49,5.941,5.941,0,0,0,1.91,4.139,1.631,1.631,0,0,1,.116,2.344,1.6,1.6,0,0,1-2.341.084,8.213,8.213,0,0,1-2.951-6.311A1.668,1.668,0,0,1,43.408,105" transform="translate(-9.109 -22.996)" fill="#00245d"/>
    <path id="Path_122" data-name="Path 122" d="M116.942,77.874c0,.945.034,1.892-.009,2.835a1.636,1.636,0,0,1-3.272.033q-.064-3,0-6a1.642,1.642,0,1,1,3.282.077c.034,1.017.008,2.036.008,3.054h-.006" transform="translate(-24.887 -16.01)" fill="#00245d"/>
    <path id="Path_123" data-name="Path 123" d="M85.277,44.894c-.982,0-1.964.031-2.944-.009a1.613,1.613,0,0,1-1.659-1.653,1.637,1.637,0,0,1,1.7-1.624c1.963-.033,3.927-.037,5.889,0a1.641,1.641,0,1,1-.042,3.281c-.98.034-1.963.007-2.944.007v0" transform="translate(-17.669 -9.107)" fill="#00245d"/>
    <path id="Path_124" data-name="Path 124" d="M116.484,106.32a8,8,0,0,1-1.673,5.091,1.732,1.732,0,0,1-2.541.6,1.682,1.682,0,0,1-.164-2.516,6.38,6.38,0,0,0,1.109-4.135,1.6,1.6,0,0,1,1.584-1.837,1.5,1.5,0,0,1,1.673,1.378,9.778,9.778,0,0,1,.012,1.42" transform="translate(-24.448 -22.673)" fill="#00245d"/>
    <path id="Path_125" data-name="Path 125" d="M100.458,44.9c-.981,0-1.963.03-2.942-.011a1.635,1.635,0,0,1-.041-3.27q3-.062,5.994,0a1.629,1.629,0,0,1,1.646,1.674,1.649,1.649,0,0,1-1.715,1.6c-.98.034-1.962.007-2.943.005" transform="translate(-21.002 -9.108)" fill="#00245d"/>
    <path id="Path_126" data-name="Path 126" d="M116.95,92.948c0,.945.026,1.891-.007,2.835a1.665,1.665,0,0,1-1.667,1.77,1.694,1.694,0,0,1-1.625-1.827c-.026-1.89-.03-3.781,0-5.671a1.644,1.644,0,0,1,1.683-1.752,1.6,1.6,0,0,1,1.6,1.7c.035.98.007,1.963.007,2.944Z" transform="translate(-24.887 -19.34)" fill="#00245d"/>
    <path id="Path_127" data-name="Path 127" d="M56.482,116.991c-.981,0-1.963.03-2.944-.008a1.618,1.618,0,0,1-1.726-1.692,1.64,1.64,0,0,1,1.725-1.6q2.889-.048,5.778,0a1.652,1.652,0,1,1,0,3.3q-.109.007-.218.007H56.482v-.007" transform="translate(-11.348 -24.895)" fill="#00245d"/>
    <path id="Path_128" data-name="Path 128" d="M86.776,116.993c-.945,0-1.89.027-2.833-.007a1.648,1.648,0,1,1-.064-3.293c1.961-.037,3.924-.04,5.885,0a1.606,1.606,0,0,1,1.645,1.668,1.627,1.627,0,0,1-1.69,1.621c-.507.031-1.017.012-1.526.013-.472,0-.944,0-1.417,0Z" transform="translate(-18.003 -24.895)" fill="#00245d"/>
    <path id="Path_129" data-name="Path 129" d="M71.533,116.992c-.945,0-1.891.031-2.833-.009a1.575,1.575,0,0,1-1.679-1.617,1.613,1.613,0,0,1,1.74-1.678q2.833-.046,5.668,0a1.676,1.676,0,0,1,1.814,1.631,1.658,1.658,0,0,1-1.767,1.666c-.98.035-1.962.007-2.943.007" transform="translate(-14.679 -24.895)" fill="#00245d"/>
    <path id="Path_130" data-name="Path 130" d="M116.948,62.513c0,.945.022,1.89,0,2.834a1.615,1.615,0,0,1-1.62,1.793,1.633,1.633,0,0,1-1.674-1.753q-.042-2.834,0-5.668a1.684,1.684,0,0,1,1.635-1.814,1.663,1.663,0,0,1,1.657,1.774c.03.944.006,1.889.007,2.834" transform="translate(-24.887 -12.682)" fill="#00245d"/>
    <path id="Path_131" data-name="Path 131" d="M44.87,94.435c0,.981.028,1.963-.009,2.943a1.639,1.639,0,1,1-3.279-.005q-.052-2.943,0-5.887a1.64,1.64,0,1,1,3.279.007c.035.979.008,1.962.007,2.943" transform="translate(-9.102 -19.674)" fill="#00245d"/>
    <path id="Path_132" data-name="Path 132" d="M101.966,116.986c-.985,0-1.972.034-2.955-.01a1.638,1.638,0,0,1-.041-3.276q3.008-.068,6.02,0a1.64,1.64,0,0,1-.069,3.279c-.983.043-1.97.009-2.955.009" transform="translate(-21.326 -24.895)" fill="#00245d"/>
  </g>
</svg>
