<svg id="Group_164" data-name="Group 164" xmlns="http://www.w3.org/2000/svg" xmlns:xlink="http://www.w3.org/1999/xlink" width="101.891" height="111.808" viewBox="0 0 101.891 111.808">
  <defs>
    <clipPath id="clip-path">
      <rect id="Rectangle_124" data-name="Rectangle 124" width="101.891" height="111.808" fill="none"/>
    </clipPath>
  </defs>
  <g id="Group_163" data-name="Group 163" clip-path="url(#clip-path)">
    <path id="Path_102" data-name="Path 102" d="M104.3,55.558H74.564a1.379,1.379,0,1,1,0-2.757H104.3a1.379,1.379,0,0,1,0,2.757" transform="translate(-23.299 -16.81)" fill="#00215c"/>
    <path id="Path_103" data-name="Path 103" d="M88.008,68.35H74.564a1.379,1.379,0,0,1,0-2.757H88.008a1.379,1.379,0,0,1,0,2.757" transform="translate(-23.299 -20.882)" fill="#00215c"/>
    <path id="Path_104" data-name="Path 104" d="M55.483,15.112a1.692,1.692,0,0,1-1.4-2.639l3.788-5.594L52.277,3.091a1.691,1.691,0,0,1,1.9-2.8l6.994,4.736a1.69,1.69,0,0,1,.453,2.348l-4.735,7a1.691,1.691,0,0,1-1.4.743" transform="translate(-16.406 0)" fill="#00215c"/>
    <path id="Path_105" data-name="Path 105" d="M51.518,109.632A51.525,51.525,0,0,1,40.023,7.883a1.691,1.691,0,0,1,.751,3.3,48.143,48.143,0,0,0,10.745,95.071,1.691,1.691,0,1,1,0,3.382" transform="translate(0 -2.496)" fill="#00215c"/>
    <path id="Path_106" data-name="Path 106" d="M91.406,156.97a1.681,1.681,0,0,1-.947-.291l-6.994-4.735a1.691,1.691,0,0,1-.453-2.348l4.736-6.994a1.69,1.69,0,1,1,2.8,1.9l-3.787,5.594,5.594,3.788a1.691,1.691,0,0,1-.95,3.091" transform="translate(-26.335 -45.162)" fill="#00215c"/>
    <path id="Path_107" data-name="Path 107" d="M84.228,108.646a1.691,1.691,0,0,1-.375-3.339A48.143,48.143,0,0,0,73.109,10.236a1.691,1.691,0,0,1,0-3.382A51.526,51.526,0,0,1,84.606,108.6a1.71,1.71,0,0,1-.378.042" transform="translate(-22.737 -2.182)" fill="#00215c"/>
    <path id="Path_108" data-name="Path 108" d="M52.159,68.7H38.46a4.181,4.181,0,0,1-4.181-4.181v-13.7a4.182,4.182,0,0,1,4.181-4.182h13.7a4.182,4.182,0,0,1,4.181,4.182v13.7A4.181,4.181,0,0,1,52.159,68.7" transform="translate(-10.913 -14.846)" fill="#008df9" fill-rule="evenodd"/>
    <path id="Path_109" data-name="Path 109" d="M104.3,95.436H74.564a1.379,1.379,0,1,1,0-2.757H104.3a1.379,1.379,0,0,1,0,2.757" transform="translate(-23.299 -29.505)" fill="#00215c"/>
    <path id="Path_110" data-name="Path 110" d="M88.008,108.228H74.564a1.379,1.379,0,0,1,0-2.757H88.008a1.379,1.379,0,0,1,0,2.757" transform="translate(-23.299 -33.578)" fill="#00215c"/>
    <path id="Path_111" data-name="Path 111" d="M52.159,108.573H38.46a4.181,4.181,0,0,1-4.181-4.181v-13.7a4.182,4.182,0,0,1,4.181-4.182h13.7a4.182,4.182,0,0,1,4.181,4.182v13.7a4.181,4.181,0,0,1-4.181,4.181" transform="translate(-10.913 -27.542)" fill="#008df9" fill-rule="evenodd"/>
  </g>
</svg>
